<svg id="Layer_1" enable-background="new 0 0 64 64" height="512" viewBox="0 0 64 64" width="512" xmlns="http://www.w3.org/2000/svg"><path d="m56.224 37.068c-.793-.397-1.573-.739-2.333-1.04.071-.657.109-1.329.109-2.017 0-1.51-.255-3.024-.732-4.535 1.012-.444 2.026-.954 2.992-1.54.236-.143.311-.451.168-.688-.146-.236-.454-.309-.688-.168-.897.546-1.847 1.024-2.799 1.443-.635-1.662-1.548-3.318-2.753-4.959 1.243-1.1 3.775-4.183 3.775-11.038 0-.27-.213-.49-.483-.5-.463-.016-11.149-.361-14.161 2.891-1.714-.554-3.42-.771-4.736-.898-.27-.012-.519.175-.546.45-.026.274.175.519.45.546 2.025.195 3.47.482 4.831.957 1.179.412 2.525 1.074 4 1.967.08.049.17.072.259.072.148 0 .296-.066.394-.191.243-.309.53-.605.903-.932.209-.182.23-.497.049-.705-.182-.21-.498-.231-.705-.049-.289.251-.533.489-.749.729-1.121-.66-2.142-1.171-3.1-1.559 1.508-1.253 4.726-1.851 7.725-2.114-.612.245-1.231.536-1.832.896-.236.142-.315.448-.172.686.093.156.259.243.429.243.088 0 .176-.022.257-.071 2.368-1.415 5.056-1.787 6.181-1.884-.137 6.823-2.894 9.385-3.753 10.016-.108.08-.18.199-.199.332s.017.268.098.375c1.296 1.699 2.272 3.411 2.923 5.124-3.888 1.561-7.554 2.144-7.602 2.151-.272.042-.46.298-.418.57.038.247.251.424.493.424.025 0 .052-.002.077-.006.201-.031 3.838-.606 7.768-2.183.429 1.387.656 2.771.656 4.148 0 .562-.036 1.109-.087 1.649-4.559-1.62-8.146-1.652-8.407-1.652-.004 0-.006 0-.008 0-.276.001-.5.226-.499.501.001.276.225.499.5.499h.001.001c.072 0 3.717.024 8.27 1.671-1.357 8.671-9.348 14.332-20.771 14.332s-19.414-5.661-20.772-14.332c4.557-1.647 8.214-1.671 8.271-1.671h.001c.276 0 .5-.224.501-.499 0-.275-.223-.5-.499-.501-.204.029-3.81.025-8.415 1.655-.051-.542-.087-1.09-.087-1.652 0-1.355.238-2.736.686-4.135 3.918 1.567 7.537 2.14 7.738 2.171.026.004.051.006.077.006.243 0 .456-.177.494-.424.042-.273-.145-.528-.418-.57-.048-.007-3.689-.585-7.561-2.134.651-1.671 1.613-3.366 2.886-5.074.087-.117.119-.268.086-.41-.033-.143-.127-.265-.256-.332-.037-.02-3.574-1.959-3.725-10.05 1.12.094 3.867.462 6.247 1.886.081.049.169.071.256.071.17 0 .336-.087.43-.243.142-.237.064-.544-.172-.686-.69-.412-1.406-.74-2.11-1.004 3.112.217 6.517.811 8.042 2.208-.938.38-1.943.885-3.098 1.567-.234-.261-.497-.494-.753-.722-.207-.183-.524-.165-.706.042-.183.207-.164.523.042.706.342.304.665.59.891.912.097.139.252.214.41.214.088 0 .178-.023.258-.072 1.545-.936 2.807-1.561 3.969-1.967 1.36-.476 2.806-.762 4.834-.957.275-.027.477-.271.45-.546-.026-.274-.273-.463-.545-.45-1.315.127-3.018.344-4.726.894-2.999-3.486-13.783-2.914-14.253-2.886-.266.016-.473.236-.473.5 0 7.387 2.674 10.266 3.792 11.146-1.172 1.633-2.064 3.259-2.694 4.87-.965-.423-1.929-.908-2.839-1.461-.236-.143-.543-.066-.687.168-.144.236-.068.544.167.688.975.593 2 1.106 3.022 1.553-.496 1.524-.761 3.034-.761 4.521 0 .688.038 1.361.109 2.019-.76.3-1.54.642-2.333 1.039-.247.124-.347.424-.224.671.089.174.265.276.448.276.075 0 .151-.017.223-.053.693-.347 1.377-.65 2.048-.92 1.517 9.064 9.853 14.968 21.729 14.968 11.877 0 20.212-5.904 21.728-14.968.671.27 1.355.573 2.048.92.071.036.148.053.224.053.183 0 .359-.101.447-.276.123-.248.024-.548-.223-.672z"/><path d="m28.106 33.325c-5.459.902-9.106 3.558-9.106 6.675 0 3.925 5.71 7 13 7s13-3.075 13-7c0-3.117-3.647-5.773-9.106-6.675-.177-.542-.581-.92-1.222-1.118-.678-.21-1.538-.209-2.522-.209h-.299c-.981.008-1.845-.001-2.522.209-.642.197-1.047.576-1.223 1.118zm15.894 6.675c0 3.252-5.495 6-12 6s-12-2.748-12-6c0-2.526 3.276-4.805 8.031-5.649.162 1.051 1.013 1.985 1.904 2.646h-1.935c-1.654 0-3 1.346-3 3v1c0 1.654 1.346 3 3 3h8c1.654 0 3-1.346 3-3v-1c0-1.654-1.346-3-3-3h-1.904c.883-.654 1.716-1.582 1.873-2.646 4.755.844 8.031 3.123 8.031 5.649zm-8.5.997h2.5c0 1.103-.898 2-2 2h-8c-1.103 0-2-.897-2-2h7.5c.276 0 .5-.224.5-.5s-.224-.5-.5-.5h-7.5c0-1.103.897-2 2-2h8c1.102 0 2 .897 2 2h-2.5c-.276 0-.5.224-.5.5s.224.5.5.5zm-3.792-8h.142.3c.879-.001 1.694-.001 2.226.164.455.141.624.367.624.836 0 1.518-2.518 2.937-2.976 3h-.008c-.51-.072-3.016-1.479-3.016-3 0-.469.169-.695.624-.836.503-.156 1.266-.164 2.084-.164z"/><path d="m42 29c0-1.654-1.346-3-3-3s-3 1.346-3 3 1.346 3 3 3 3-1.346 3-3zm-5 0c0-1.103.897-2 2-2 1.102 0 2 .897 2 2s-.898 2-2 2c-1.103 0-2-.897-2-2z"/><path d="m28 29c0-1.654-1.346-3-3-3s-3 1.346-3 3 1.346 3 3 3 3-1.346 3-3zm-5 0c0-1.103.897-2 2-2s2 .897 2 2-.897 2-2 2-2-.897-2-2z"/><path d="m34.502 27c.13 0 .261-.051.358-.151.192-.198.188-.515-.01-.707-.689-.669-.836-2.121-.835-2.624.001-.275-.222-.501-.498-.502-.274.027-.5.221-.502.497 0 .091.001 2.241 1.138 3.346.098.094.223.141.349.141z"/><path d="m30.502 23.016c-.001 0-.002 0-.002 0-.276.001-.499.227-.498.502.001.503-.146 1.955-.835 2.624-.198.192-.203.509-.01.707.098.1.228.151.359.151.125 0 .251-.047.349-.142 1.137-1.104 1.138-3.255 1.138-3.346-.003-.275-.226-.496-.501-.496z"/><path d="m32.528 14.017c-.177-.004-.353-.006-.528-.006l-.479.004c-.276.005-.496.233-.491.51.005.274.226.503.509.49l.461-.004c.168 0 .337.002.506.006h.011c.271 0 .494-.217.5-.488.006-.277-.212-.506-.489-.512z"/></svg>